<svg xmlns="http://www.w3.org/2000/svg" xmlns:xlink="http://www.w3.org/1999/xlink" version="1.1" x="0px" y="0px" viewBox="0 0 100 125" enable-background="new 0 0 100 100" xml:space="preserve"><path d="M82.8970718,53.7869186c-0.2698975-1.9909668-1.9626465-3.5358887-4.0258789-3.5358887  c-0.0164795,0-0.0317383,0.0046387-0.0482178,0.0048828c-0.9235229-2.5751953-3.3823242-4.4257813-6.2711182-4.4257813  c-1.7749023,0-3.3860474,0.7016602-4.5820313,1.8366699l0.3457031-3.2585449  c0.2484741-1.4174805,0.4210205-3.4974365,0.4356079-5.7980957c0.982605-1.7412109,1.4822388-3.8188477,1.3270874-5.9870605  l-1.1728516-16.3369141c0.5087891-0.9477549,1.0322266-1.8637705,1.5576172-2.7270517l1.9755859,1.8037109  c0.3554688,0.3261719,0.8398438,0.4423828,1.2958984,0.3120117c0.4746094-0.1362305,0.8417969-0.5146484,0.9804688-1.0117188  c0.0927734-0.3339844,0.203125-0.6679688,0.3115234-1c0.4707031-1.4331055,1.0039063-3.0576172,0.15625-4.5976563  c-0.8027344-1.4589844-2.5380859-2.2719727-5.171875-2.4174805l-3.3154297-0.1259766  c-1.2832031-0.0488281-2.453125-0.0019531-3.5859375,0.1420898c-2.2333984,0.2836914-3.265625,0.8056641-4.3583984,1.3583984  l-0.4433594,0.222168c-1.1669922,0.5761719-2.2792969,1.3383789-3.3916016,2.3251953  c-1.296875-0.1884766-2.84375-0.2729492-4.9423828-0.2729492c-2.4814453,0-4.2919922,0.1162109-5.7919922,0.375  c-1.1455078-1.0327148-2.2978516-1.8286133-3.5107422-2.4272461l-0.4433594-0.222168  c-1.0927734-0.5527344-2.125-1.074707-4.3583984-1.3583984c-1.1308594-0.1435547-2.3046875-0.1899414-3.5849609-0.1420898  L28.9561539,6.64849c-2.6220703,0.1450195-4.3574219,0.9580078-5.1601563,2.4169922  c-0.8466797,1.5390625-0.3144531,3.1621094,0.1552734,4.5942383c0.109375,0.3330078,0.2197266,0.6679688,0.3125,1.0024414  c0.1386719,0.4980469,0.5058594,0.8764648,0.9814453,1.0126953c0.4560547,0.1308594,0.9404297,0.0146484,1.2958984-0.3115234  l1.9746094-1.8037109c0.6025391,0.987793,1.2011719,2.0458984,1.78125,3.149415l-1.1416016,15.9140625  c-0.1425781,1.9853516,0.2501221,3.9049072,1.0715942,5.5515137c-0.0073242,2.4672852,0.1699829,4.7067871,0.4293823,6.1833496  l0.4533691,4.2689209c-1.875-0.4822998-3.9420776-0.1661377-5.6359863,1.0465088  c-0.0932617,0.0667725-0.1774292,0.1413574-0.2662964,0.2119141c-0.8145142-0.3553467-1.711731-0.5551758-2.6555786-0.5551758  c-2.8758545,0-5.3253784,1.8342285-6.2584839,4.3913574c-0.5557261,0.1175537-1.0601206,0.4162598-1.4299936,0.8640137  c-0.484375,0.5859375-0.6796875,1.3500977-0.5361328,2.0957031l3.9980478,20.8852539  c1.7666016,9.2304688,9.8701172,15.9301758,19.2685547,15.9301758h23.7910156  c9.3974609,0,17.5019531-6.699707,19.2695313-15.9301758l3.9980469-20.8857422  c0.1425781-0.7460938-0.0527344-1.5102539-0.5371094-2.0961914C83.7939835,54.1960983,83.3668594,53.9304733,82.8970718,53.7869186z   M79.1791763,51.78228c1.0509033,0.1270752,1.9031372,0.8803711,2.1738892,1.8808594h-2.243042  c0.0673828-0.3795166,0.1088257-0.7679443,0.1088257-1.1665039C79.2188492,52.2551804,79.2043228,52.0171432,79.1791763,51.78228z   M72.551857,47.3301315c2.1618652,0,4.0123901,1.3378906,4.7817993,3.2266846  c0.0936279,0.2296143,0.1626587,0.4708252,0.2226563,0.7155762c0.0625,0.2550049,0.0952759,0.5184326,0.1182861,0.786499  c0.0125732,0.1467285,0.0442505,0.2878418,0.0442505,0.4377441c0,0.4025879-0.0570068,0.7901611-0.1445313,1.1665039h-1.1859741  h-0.7816772h-0.7498169h-7.3274536c-0.0614624-0.2641602-0.0900879-0.5383301-0.1091309-0.8161621l0.1877441-1.7692871  C68.2294083,48.9214401,70.1985855,47.3301315,72.551857,47.3301315z M31.0257339,36.093071  c-0.3148193-1.0556641-0.4584961-2.1917725-0.3742676-3.3625488l0.0753784-1.0496826l1.0974731-15.2891846l-0.0986328-0.1889648  c-0.6445313-1.2353525-1.3125-2.418458-1.9853516-3.5166025c-0.2275391-0.3696289-0.5957031-0.6152344-1.0126953-0.6738281  c-0.0634766-0.0087891-0.1269531-0.0131836-0.1904297-0.0131836c-0.3447266,0-0.6796875,0.1298828-0.9414063,0.3696289  l-1.9248047,1.7578125c-0.0908203-0.3120117-0.1923828-0.6240234-0.2949219-0.9345703  c-0.4287109-1.3066406-0.7988281-2.4355469-0.265625-3.4038086c0.6679688-1.2143555,2.5048828-1.5629883,3.9150391-1.6411133  l3.3154297-0.1259766c1.1962891-0.0458984,2.2900391-0.0029297,3.3388672,0.1313477  c1.9765625,0.2509766,2.8125,0.6738281,3.8710938,1.2089844l0.4560547,0.2290039  c1.1787109,0.5810547,2.3007813,1.3769531,3.4296875,2.434082l0.2802734,0.262207l0.3759766-0.0732422  c1.4755859-0.2880859,3.2890625-0.4165039,5.8808594-0.4165039c2.2109375,0,3.7705078,0.0952148,5.0576172,0.3085938  l0.3613281,0.0600586l0.2695313-0.2480469c1.0947266-1.0078125,2.1777344-1.769043,3.3095703-2.3271484l0.4560547-0.2290039  c1.0585938-0.5351563,1.8945313-0.9580078,3.8710938-1.2089844c1.0488281-0.1337891,2.1386719-0.1767578,3.3398438-0.1313477  l3.3027344,0.1254883c1.4228516,0.0786133,3.2587891,0.4272461,3.9267578,1.6416016  c0.5332031,0.9692383,0.1630859,2.0991211-0.2666016,3.4072266c-0.1074219,0.328125-0.2158203,0.6572266-0.2578125,0.9633789  l-1.9599609-1.7900391c-0.3115234-0.2836914-0.7255859-0.4160156-1.1337891-0.355957  c-0.4160156,0.0585938-0.7851563,0.3041992-1.0117188,0.6738281c-0.5947266,0.972168-1.1865234,2.0102539-1.7587891,3.0844727  l-0.1015625,0.190918l1.2041016,16.7685547c0.03479,0.4855957,0.0232544,0.963623-0.0134888,1.4354248  c-0.0704956,0.9057617-0.2752075,1.7719727-0.5873413,2.581665c-0.1987305,0.5153809-0.440918,1.0041504-0.7278442,1.4611816  c-0.6742554,1.0737305-1.5686035,1.9752197-2.6605835,2.5861816c-1.6455078,0.9204102-3.1142578,2.4291992-4.3662109,4.4848633  c-0.3876953,0.6369629-0.9009399,1.2137451-1.4828491,1.7462158c-2.1516113,1.9688721-5.4870605,3.1785889-9.1275024,3.1785889  c-3.8267822,0-7.3164673-1.3374023-9.4459839-3.4897461c-0.4436646-0.4483643-0.8493652-0.9191895-1.1633911-1.4350586  c-1.2529297-2.0561523-2.7216797-3.5649414-4.3662109-4.4848633c-1.2369385-0.6918945-2.2233276-1.7532959-2.9159546-3.0217285  C31.4368668,37.2460251,31.2023087,36.685112,31.0257339,36.093071z M64.6608047,65.1199265  c0.0181274,0.0721436,0.0374756,0.1445313,0.0765991,0.2092285l0.1611328,0.2626953  c1.3677368,2.4801025,1.3096313,5.4074707,0.0568848,7.2971191l-0.7297363-1.9284668  c-0.1455078-0.3867188-0.5761719-0.581543-0.9667969-0.4360352c-0.3876953,0.1469727-0.5820313,0.5795898-0.4355469,0.9672852  l0.9869995,2.6083984c-0.5170288,0.3537598-1.0912476,0.5518799-1.694458,0.6206055l-1.1831665-3.0532227  c-0.1494141-0.3857422-0.5839844-0.578125-0.9697266-0.4282227c-0.3867188,0.1494141-0.578125,0.5839844-0.4287109,0.9702148  l0.9136353,2.3577881c-1.4425049-0.4312744-2.7544556-1.5561523-3.6304321-3.1429443  c-0.1660156-0.3010254-0.3060303-0.6123047-0.4318848-0.9278564c-0.0950317-0.2384033-0.1830444-0.4787598-0.2549438-0.7224121  c-0.071228-0.241333-0.12854-0.4848633-0.1768188-0.7288818c-0.2837524-1.4343262-0.1743164-2.8937988,0.355835-4.1276855  c0.0458984-0.1074219,0.0673828-0.1826172,0.0605469-0.2988281c0.0026245-0.065918,0.0231934-0.2332764,0.0517578-0.4455566  c0.2089233-1.5522461,1.0344238-6.5710449,1.4411011-9.0100098c0.0490112-0.2939453,0.0905762-0.5422363,0.1254272-0.7497559  c0.045105-0.2683105,0.0792236-0.4699707,0.0936279-0.5529785c0.0116577-0.067627,0.0007324-0.1320801-0.0055542-0.1972656  c-0.0307007-0.3198242-0.2547607-0.5922852-0.5811768-0.6606445c-0.0085449-0.0018311-0.0149536-0.0078125-0.0236206-0.0092773  c-0.4091797-0.0722656-0.796875,0.2016602-0.8681641,0.6103516c-0.0004883,0.0029297-0.0066528,0.0395508-0.0100708,0.0595703  H42.3845596c-0.0036011-0.0209961-0.0098877-0.0579834-0.010437-0.0610352  c-0.0712891-0.4082031-0.4580078-0.6811523-0.8681641-0.6088867c-0.0081787,0.0014648-0.0141602,0.0070801-0.0222778,0.0087891  c-0.3273315,0.0684814-0.5512085,0.3414307-0.5812988,0.6611328c-0.0061646,0.0656738-0.0169067,0.1306152-0.0048218,0.1987305  c0.0142822,0.0812988,0.0484009,0.2824707,0.093689,0.5515137c0.0348511,0.2072754,0.0764771,0.4558105,0.1255493,0.7497559  c0.4091187,2.4523926,1.2426758,7.5197754,1.4448242,9.0100098c0.026123,0.1923828,0.0452271,0.3452148,0.0478516,0.4040527  c-0.0068359,0.1162109,0.0136719,0.2329102,0.0595703,0.340332c0.5307007,1.234375,0.6400146,2.6938477,0.3562012,4.1276855  c-0.0482788,0.2440186-0.1057739,0.4875488-0.1769409,0.7287598c-0.0719604,0.2437744-0.1599731,0.4841309-0.2550659,0.7225342  c-0.1259155,0.3155518-0.2659302,0.6268311-0.4320068,0.9278564c-0.8760986,1.5871582-2.1883545,2.7119141-3.6303711,3.1427002  l0.9135742-2.3575439c0.1494141-0.3862305-0.0419922-0.8208008-0.4287109-0.9702148  c-0.3876953-0.1503906-0.8203125,0.0415039-0.9697266,0.4282227L36.862587,74.721489  c-0.6032104-0.0686035-1.1765137-0.267334-1.6937256-0.6210938l0.9865112-2.6091309  c0.1464844-0.387207-0.0488281-0.8203125-0.4355469-0.9667969c-0.390625-0.1459961-0.8203125,0.0488281-0.9667969,0.4365234  l-0.729187,1.9284668c-1.2527466-1.8891602-1.3115234-4.8166504,0.0563354-7.2956543l0.1640625-0.2695313  c0.0361328-0.0609131,0.0587158-0.1278076,0.076355-0.1955566c0.0234375-0.0898438,0.03479-0.182373,0.024231-0.2756348  c-0.0019531-0.0185547-0.0058594-0.0385742-0.0097656-0.059082l-0.06604-0.6210938l-0.4116821-3.8735352  c1.1941528-1.0322266,1.9849243-2.4343262,2.2453003-4.0107422c0.0623169-0.3759766,0.0858765-0.7518311,0.0856323-1.1254883  c-0.0001831-0.2514648-0.012207-0.501709-0.0401611-0.7497559c-0.0285034-0.2524414-0.0672607-0.5032959-0.1240845-0.7502441  c-0.1983032-0.8618164-0.5667725-1.6843262-1.097168-2.4248047c-0.6087646-0.8503418-1.3826904-1.510498-2.2434082-1.9829102  l-0.5427246-5.105957c-0.1696777-0.9705811-0.3027344-2.269165-0.3708496-3.7357178  c0.6208496,0.6690674,1.3372192,1.2425537,2.1384277,1.6907959c1.4160156,0.7919922,2.7011719,2.1230469,3.8173828,3.9555664  c0.7084961,1.1640625,1.7198486,2.1838379,2.9406128,3.0290527c2.3751221,1.6442871,5.5578613,2.6154785,8.9500122,2.6154785  c3.2520142,0,6.3137817-0.8901367,8.6540527-2.4118652c1.3563232-0.881958,2.4718628-1.9746094,3.2375488-3.232666  c1.1152344-1.8325195,2.3994141-3.1630859,3.8173828-3.9560547c0.6940918-0.3881836,1.3126221-0.8839111,1.8727417-1.440918  c-0.0722656,1.3776855-0.2033691,2.5991211-0.3668823,3.5366211l-0.6872559,6.4768066l-0.2377319,2.2403564l-0.0792236,0.7462158  l-0.0795898,0.7502441l-0.0795288,0.7497559l-0.9560547,9.0097656l-0.0632324,0.5957031  C64.6209488,64.8862839,64.6319351,65.0049362,64.6608047,65.1199265z M24.2099991,54.4133835  c0.0377197-0.255127,0.1066284-0.5029297,0.1810303-0.7502441c0.2119141-0.7045898,0.5620117-1.3668213,1.0602417-1.9389648  c0.1651611-0.1896973,0.3553467-0.3596191,0.5507813-0.5273438c0.1166382-0.1000977,0.2174683-0.2125244,0.3447266-0.3037109  c0.0883179-0.0632324,0.1835327-0.1081543,0.274353-0.1651611c0.8638306-0.5421143,1.8277588-0.8187256,2.7901001-0.8187256  c0.6387329,0,1.2728271,0.1185303,1.8712158,0.34375c0.2747803,0.1033936,0.5390015,0.2351074,0.7949829,0.3842773  c0.2862549,0.166748,0.5603027,0.3571777,0.8145142,0.5797119c0.2988892,0.2615967,0.5750122,0.5578613,0.8161621,0.8944092  c0.342041,0.4777832,0.576416,1.0054932,0.7418823,1.5517578c0.074646,0.2463379,0.1281128,0.4956055,0.1655273,0.7502441  c0.036499,0.2484131,0.0662231,0.496582,0.0666504,0.7497559c0.0004272,0.2924805-0.0101929,0.5864258-0.059021,0.8808594  c-0.1386719,0.8363037-0.4881592,1.5959473-0.9780884,2.2583008c-0.1995239,0.2697754-0.4237061,0.5187988-0.6743774,0.748291  c-0.1569824,0.1437988-0.305542,0.2952881-0.4813232,0.4211426c-0.0681152,0.0488281-0.1447144,0.0788574-0.2145996,0.1242676  c-1.1033936,0.7158203-2.4064941,1.0080566-3.7180176,0.7907715c-0.2806396-0.0463867-0.5483398-0.1291504-0.8131104-0.2175293  c-0.2491455-0.0831299-0.4844971-0.1914063-0.7163696-0.3096924c-0.2322388-0.1184082-0.4540405-0.2503662-0.6658325-0.4022217  c-0.4646606-0.3330078-0.8892212-0.7253418-1.2314453-1.2038574h-0.0009766  c-0.6704102-0.9362793-0.9762573-2.0183105-0.9706421-3.090332C24.1596451,54.9119186,24.173378,54.6613083,24.2099991,54.4133835z   M22.551857,50.8301315c0.5180664,0,1.0085449,0.0997314,1.4807739,0.2423096  c-0.5912476,0.7757568-0.9934082,1.6624756-1.206665,2.5906982h-4.8579712  C18.8241959,51.9900436,20.5470352,50.8301315,22.551857,50.8301315z M79.1817398,77.2842331  c-1.6328125,8.5249023-9.1171875,14.7124023-17.796875,14.7124023H37.5938492c-8.6796875,0-16.1640625-6.1875-17.7958984-14.7124023  l-3.9980478-20.8857422c-0.0409546-0.2133789,0.0080566-0.4211426,0.0957031-0.6142578  c0.0376587-0.0831299,0.0643921-0.1711426,0.1240244-0.2431641c0.1702881-0.2062988,0.4151001-0.3172607,0.6766968-0.3500977  c0.0429688-0.0053711,0.0811157-0.027832,0.125061-0.027832h0.6477661h5.1832886  c-0.0057373,1.3747559,0.3978271,2.7629395,1.2578125,3.9633789c0.3565063,0.498291,0.7756958,0.934082,1.2381592,1.3111572  c0.2153931,0.1756592,0.4375,0.3419189,0.6723022,0.4891357c0.2340698,0.1464844,0.4793701,0.2744141,0.7304688,0.3913574  c0.5531006,0.2575684,1.1421509,0.4462891,1.760437,0.548584c0.375,0.0620117,0.75,0.0927734,1.1210938,0.0927734  c1.0505371,0,2.0784912-0.2445068,3.0169678-0.7165527l0.3746338,3.5275879  c-0.0185547,0.03125-0.0380859,0.0634766-0.0556641,0.0966797c-1.8499146,3.3518066-1.4914551,7.4580078,0.6868286,9.7294922  c0.2425537,0.2529297,0.5032349,0.4874268,0.7905273,0.6911621c0.0106201,0.0075684,0.0197754,0.0167236,0.0304565,0.0241699  c0.8139648,0.5679932,1.7496338,0.8725586,2.7247925,0.9274902c0.1011963,0.0056152,0.2005615,0.0227051,0.3025513,0.0227051  c0.1221924,0,0.2455444-0.0131836,0.3684692-0.0214844c0.3053589-0.0205078,0.6118774-0.0571289,0.9196167-0.1289063  c1.9658203-0.4570313,3.7451172-1.9018555,4.8818359-3.9628906c0.246521-0.4466553,0.442627-0.9139404,0.6139526-1.3879395  c0.0870972-0.2409668,0.1686401-0.4825439,0.236084-0.7280273c0.0670166-0.2436523,0.1309204-0.4880371,0.1784058-0.734375  c0.3233643-1.6765137,0.1954346-3.3913574-0.4093018-4.8649902c-0.006897-0.0686035-0.0194092-0.1678467-0.0307617-0.260498  c-0.1932983-1.5806885-1.000061-6.4694824-1.4250488-9.0100098h13.7043457  c-0.4246826,2.5396729-1.2319336,7.4287109-1.4248657,9.0100098c-0.0113525,0.0927734-0.0238647,0.1921387-0.0307007,0.2609863  c-0.604187,1.4729004-0.7321777,3.1876221-0.4088745,4.864502c0.0474854,0.2463379,0.1113281,0.4907227,0.1783447,0.734375  c0.0674438,0.2453613,0.1489258,0.4868164,0.2359619,0.7279053c0.1712646,0.473999,0.3672485,0.9412842,0.6137085,1.3880615  c1.1367188,2.0615234,2.9169922,3.5058594,4.8828125,3.9633789c0.3076172,0.0712891,0.6138306,0.1080322,0.9187012,0.128418  c0.1229248,0.0083008,0.2463379,0.0214844,0.3684082,0.0214844c0.1019897,0,0.201355-0.0170898,0.3025513-0.0227051  c0.9751587-0.0549316,1.9108276-0.3596191,2.7247925-0.9279785c0.0105591-0.0073242,0.0196533-0.0163574,0.0301514-0.0239258  c0.2880249-0.2041016,0.5493164-0.439209,0.7923584-0.6928711c2.1769409-2.2714844,2.534729-6.3771973,0.6853027-9.7294922  c-0.0175781-0.0322266-0.0361328-0.0634766-0.0546875-0.0947266l0.9022827-8.5053711l0.1169434-1.1020508h0.1005859h0.8736572  h6.7261963h0.781189h0.7822876h0.5163574h0.8736572h0.829895h2.6445313h0.7824097h0.0719604  c0.2379761,0,0.4505005,0.1010742,0.6325684,0.2458496c0.0562744,0.0447998,0.1223755,0.0749512,0.1691895,0.1315918  c0.1982422,0.2397461,0.2792969,0.5527344,0.2207031,0.8583984L79.1817398,77.2842331z M79.3995132,61.8955612l-1.3398438,6.8574219  c-0.0703125,0.3579102-0.3837891,0.605957-0.7353516,0.605957c-0.0478516,0-0.0966797-0.0043945-0.1445313-0.0141602  c-0.4072266-0.0791016-0.671875-0.4731445-0.5927734-0.8798828l1.3398438-6.8574219  c0.0800781-0.4067383,0.4814453-0.6713867,0.8798828-0.5917969C79.2139664,61.09478,79.4786148,61.4888229,79.3995132,61.8955612z   M77.3770523,72.2412643l-0.8632813,4.4174805c-0.0703125,0.3579102-0.3837891,0.605957-0.7353516,0.605957  c-0.0478516,0-0.0966797-0.0043945-0.1445313-0.0141602c-0.4072266-0.0791016-0.671875-0.4731445-0.5927734-0.8798828  l0.8632813-4.4174805c0.0800781-0.40625,0.4824219-0.6733398,0.8798828-0.5917969  C77.1915054,71.4404831,77.4561539,71.8345261,77.3770523,72.2412643z M43.619606,40.7793503  c0-1.8010254,2.6281128-3.2612305,5.8699951-3.2612305s5.8699341,1.4602051,5.8699341,3.2612305  c0,1.8012695-2.6280518,3.2612305-5.8699341,3.2612305S43.619606,42.5806198,43.619606,40.7793503z M37.8476944,26.2363815  c0-1.0263672,0.8319092-1.8583984,1.8582153-1.8583984s1.8582153,0.8320313,1.8582153,1.8583984  c0,1.026123-0.8319092,1.8581543-1.8582153,1.8581543S37.8476944,27.2625046,37.8476944,26.2363815z M57.4150162,26.2363815  c0-1.0263672,0.8319702-1.8583984,1.8582764-1.8583984c1.0262451,0,1.8582153,0.8320313,1.8582153,1.8583984  c0,1.026123-0.8319702,1.8581543-1.8582153,1.8581543C58.2469864,28.0945358,57.4150162,27.2625046,57.4150162,26.2363815z   M72.1680679,36.9966354c0,3.7358398,3.0390625,6.7753906,6.7753906,6.7753906s6.7753906-3.0395508,6.7753906-6.7753906  s-3.0390625-6.7749023-6.7753906-6.7749023S72.1680679,33.2607956,72.1680679,36.9966354z M78.9434586,31.7217331  c2.9091797,0,5.2753906,2.3662109,5.2753906,5.2749023s-2.3662109,5.2753906-5.2753906,5.2753906  s-5.2753906-2.3666992-5.2753906-5.2753906S76.0342789,31.7217331,78.9434586,31.7217331z M77.9249039,35.0474167  l-0.6992188-1.3271484c0.5253906-0.2763672,1.1191406-0.4223633,1.7177734-0.4223633  c2.0400391,0,3.6992188,1.6591797,3.6992188,3.6987305h-1.5c0-1.2124023-0.9863281-2.1987305-2.1992188-2.1987305  C78.5821304,34.797905,78.239357,34.8818893,77.9249039,35.0474167z M26.411232,57.3355026l1.21875-0.8730469  c0.0112305,0.015625,0.0258789,0.0270996,0.0374756,0.0424805c0.1925659,0.2539063,0.4303589,0.4520264,0.6942749,0.5966797  c0.2254028,0.1234131,0.46698,0.2110596,0.7180176,0.2503662c0.5499878,0.0860596,1.132019-0.032959,1.6185913-0.3817139  c0.2939453-0.2099609,0.5234375-0.4775391,0.6835938-0.7963867l0.5592041,0.2807617l0.7806396,0.3920898  c-0.1642456,0.3273926-0.3917236,0.6156006-0.6455078,0.8806152c-0.1581421,0.1650391-0.3181763,0.3294678-0.5048828,0.4631348  c-0.6503906,0.465332-1.4023438,0.6894531-2.1474609,0.6894531c-0.2776489,0-0.5537109-0.034668-0.8238525-0.0958252  c-0.2446289-0.0554199-0.4798584-0.1451416-0.7096558-0.2493896c-0.2305908-0.1044922-0.4456787-0.2391357-0.6530151-0.3913574  C26.9310684,57.9182663,26.6440811,57.6610641,26.411232,57.3355026z"/></svg>