<svg xmlns="http://www.w3.org/2000/svg" xmlns:xlink="http://www.w3.org/1999/xlink" xml:space="preserve" style="shape-rendering:geometricPrecision;text-rendering:geometricPrecision;image-rendering:optimizeQuality;" viewBox="0 0 0.322535 0.36944375" x="0px" y="0px" fill-rule="evenodd" clip-rule="evenodd"><defs><style type="text/css">
   
    .fil1 {fill:black}
    .fil0 {fill:black;fill-rule:nonzero}
   
  </style></defs><g><path class="fil0" d="M0.248799 0.0375591l0.0635748 -0.0375591 0.0101614 0.00811811 -0.0245866 0.075815c0.0138504,0.0211063 0.0214961,0.0455827 0.0214961,0.0708701 0,0.0843583 -0.078626,0.140752 -0.158181,0.140752 -0.0795551,0 -0.158173,-0.0563937 -0.158173,-0.140752 0,-0.0252992 0.00764567,-0.049752 0.0214961,-0.0708701l-0.0245866 -0.075815 0.0101614 -0.00811811 0.0635748 0.0375591c0.0264449,-0.0156496 0.0568504,-0.0235079 0.0875276,-0.0235079 0.0306654,0 0.0611024,0.00785827 0.0875354,0.0235079zm0.0548346 -0.0162205l-0.0549961 0.0324882c-0.0273819,-0.0172441 -0.0548346,-0.0258268 -0.087374,-0.0258268 -0.0324488,0 -0.0599961,0.00860236 -0.087374,0.0258268l-0.0549882 -0.0324882 0.0210118 0.0648071c-0.0147283,0.0212874 -0.022878,0.0424528 -0.022878,0.0686575 0,0.0766378 0.0723701,0.126803 0.144228,0.126803 0.0718583,0 0.144232,-0.0501654 0.144232,-0.126803 0,-0.0260827 -0.00814567,-0.0474016 -0.022878,-0.0686535l0.0210157 -0.064811z"/><path class="fil0" d="M0.199638 0.175969l0.0021378 0.00527165 -0.0360512 0.0351772c0.011248,0.0101614 0.0242244,0.0157638 0.0361693,0.0170039 0.0183819,0.00190157 0.035063,-0.0064685 0.0371417,-0.0263543l0.00610236 0.000625984c-0.00243307,0.0233189 -0.0220866,0.0340906 -0.0438701,0.0318307 -0.0132756,-0.00138583 -0.0276417,-0.00758661 -0.0399724,-0.0188425 -0.0123268,0.0112559 -0.0266969,0.0174567 -0.0399685,0.0188425 -0.0217835,0.00225984 -0.0414409,-0.00851181 -0.0438701,-0.0318307l0.00610236 -0.000625984c0.00207874,0.0198858 0.0187598,0.0282559 0.0371378,0.0263543 0.0119488,-0.00124016 0.0249213,-0.00684252 0.0361693,-0.0170039l-0.0360512 -0.0351772 0.0021378 -0.00527165c0.025563,0 0.051122,0 0.076685,0zm-0.0383425 0.0362087l0.0308031 -0.0300551 -0.0616024 0 0.0307992 0.0300551z"/><path class="fil1" d="M0.106921 0.154024c0.0199331,-0.00533858 0.0319213,-0.0252323 0.0267795,-0.0444252 -0.00514567,-0.0191969 -0.0254724,-0.0304291 -0.0454055,-0.0250866 -0.0199331,0.00534252 -0.0319252,0.0252323 -0.0267795,0.0444291 0.00514173,0.0191929 0.0254724,0.0304252 0.0454055,0.0250827zm-0.037252 -0.0259528c0.00343701,-0.0339528 0.050815,-0.0252047 0.0451614,0.00998031 0.0364803,-0.0573425 -0.0571496,-0.0685315 -0.0451614,-0.00998031z"/><path class="fil1" d="M0.234236 0.154024c0.0199331,-0.00533858 0.0319252,-0.0252323 0.0267795,-0.0444252 -0.00514173,-0.0191969 -0.0254724,-0.0304291 -0.0454055,-0.0250866 -0.0199331,0.00534252 -0.0319252,0.0252323 -0.0267795,0.0444291 0.00514173,0.0191929 0.0254724,0.0304252 0.0454055,0.0250827zm-0.037248 -0.0259528c0.00343701,-0.0339528 0.050815,-0.0252047 0.0451575,0.00998031 0.0364803,-0.0573425 -0.0571496,-0.0685315 -0.0451575,-0.00998031z"/><polygon class="fil1" points="0.161295,0.200496 0.173988,0.18811 0.148602,0.18811 "/><polygon class="fil0" points="0.161299,0.26376 0.147665,0.233701 0.174937,0.233701 "/></g></svg>